<svg width="20" height="20" viewBox="0 0 20 20" fill="#01B0BB" xmlns="http://www.w3.org/2000/svg">
<path fill-rule="evenodd" clip-rule="evenodd" d="M13.0457 3.15986C11.5717 2.50308 9.92488 2.34037 8.35083 2.69601C6.77678 3.05164 5.35986 3.90656 4.3114 5.13327C3.26293 6.35998 2.63908 7.89275 2.5329 9.50297C2.42673 11.1132 2.8439 12.7146 3.72222 14.0684C4.60053 15.4221 5.89292 16.4557 7.40664 17.0149C8.92037 17.5742 10.5743 17.6291 12.1218 17.1716C13.6693 16.714 15.0274 15.7685 15.9937 14.476C16.9599 13.1835 17.4824 11.6134 17.4834 9.99963V9.23345C17.4834 8.76401 17.8639 8.38345 18.3334 8.38345C18.8028 8.38345 19.1834 8.76401 19.1834 9.23345V10.0001C19.1822 11.9804 18.541 13.9078 17.3553 15.4939C16.1695 17.08 14.5029 18.2403 12.6038 18.8018C10.7048 19.3633 8.6751 19.2959 6.8175 18.6096C4.95991 17.9233 3.37392 16.6549 2.29608 14.9936C1.21824 13.3323 0.706289 11.3671 0.836587 9.39112C0.966886 7.41509 1.73245 5.53413 3.0191 4.02875C4.30575 2.52337 6.04456 1.47423 7.97618 1.0378C9.90781 0.601377 11.9288 0.801047 13.7376 1.60704C14.1664 1.7981 14.3592 2.3006 14.1681 2.7294C13.977 3.1582 13.4745 3.35093 13.0457 3.15986Z" />
<path fill-rule="evenodd" clip-rule="evenodd" d="M18.9341 2.7321C19.2662 3.06388 19.2665 3.60207 18.9347 3.93418L10.6014 12.2758C10.442 12.4354 10.2257 12.525 10.0002 12.5251C9.77472 12.5252 9.55843 12.4356 9.39897 12.2761L6.89897 9.77615C6.56702 9.4442 6.56702 8.90601 6.89897 8.57406C7.23092 8.24212 7.7691 8.24212 8.10105 8.57406L9.99971 10.4727L17.732 2.7327C18.0638 2.40059 18.602 2.40032 18.9341 2.7321Z" />
</svg>
